# xmcd
#
# Track frame offsets: 
#        150
#        19864
#        33816
#        55256
#
# Disc length: 933 seconds
#
# Revision: 0
# Processed by: cddbd v1.5.2PL0 Copyright (c) Steve Scherf et al.
# Submitted via: ExactAudioCopy v0.95a5
#
DISCID=2703a304
DTITLE=Ladytron - The Harmonium Sessions
DYEAR=2006
DGENRE=Electronic
TTITLE0=International Dateline
TTITLE1=Sugar
TTITLE2=Destroy Everything You Touch
TTITLE3=The Last One Standing
EXTD=
EXTT0=
EXTT1=
EXTT2=
EXTT3=
PLAYORDER=
